<?xml version="1.0" standalone="yes"?>
<!-- SVG graphic -->
<svg xmlns='http://www.w3.org/2000/svg' xmlns:xlink='http://www.w3.org/1999/xlink'
 version="1.1">
<rect x="0" y="0" width="6" height="200" stroke="black" stroke-width="1" fill="blue" tooltip="enable"><title>(0,1113)</title></rect><rect x="6" y="24.7979" width="6" height="175.202" stroke="black" stroke-width="1" fill="blue" tooltip="enable"><title>(0.0390245,975)</title></rect><rect x="12" y="49.416" width="6" height="150.584" stroke="black" stroke-width="1" fill="blue" tooltip="enable"><title>(0.078049,838)</title></rect><rect x="18" y="54.4474" width="6" height="145.553" stroke="black" stroke-width="1" fill="blue" tooltip="enable"><title>(0.117074,810)</title></rect><rect x="24" y="79.2453" width="6" height="120.755" stroke="black" stroke-width="1" fill="blue" tooltip="enable"><title>(0.156098,672)</title></rect><rect x="30" y="86.9721" width="6" height="113.028" stroke="black" stroke-width="1" fill="blue" tooltip="enable"><title>(0.195123,629)</title></rect><rect x="36" y="95.5975" width="6" height="104.403" stroke="black" stroke-width="1" fill="blue" tooltip="enable"><title>(0.234147,581)</title></rect><rect x="42" y="104.762" width="6" height="95.2381" stroke="black" stroke-width="1" fill="blue" tooltip="enable"><title>(0.273172,530)</title></rect><rect x="48" y="109.793" width="6" height="90.2066" stroke="black" stroke-width="1" fill="blue" tooltip="enable"><title>(0.312196,502)</title></rect><rect x="54" y="121.114" width="6" height="78.8859" stroke="black" stroke-width="1" fill="blue" tooltip="enable"><title>(0.351221,439)</title></rect><rect x="60" y="118.419" width="6" height="81.5813" stroke="black" stroke-width="1" fill="blue" tooltip="enable"><title>(0.390245,454)</title></rect><rect x="66" y="128.122" width="6" height="71.8778" stroke="black" stroke-width="1" fill="blue" tooltip="enable"><title>(0.42927,400)</title></rect><rect x="72" y="130.099" width="6" height="69.9012" stroke="black" stroke-width="1" fill="blue" tooltip="enable"><title>(0.468294,389)</title></rect><rect x="78" y="141.24" width="6" height="58.7601" stroke="black" stroke-width="1" fill="blue" tooltip="enable"><title>(0.507319,327)</title></rect><rect x="84" y="144.115" width="6" height="55.885" stroke="black" stroke-width="1" fill="blue" tooltip="enable"><title>(0.546343,311)</title></rect><rect x="90" y="151.303" width="6" height="48.6972" stroke="black" stroke-width="1" fill="blue" tooltip="enable"><title>(0.585368,271)</title></rect><rect x="96" y="155.975" width="6" height="44.0252" stroke="black" stroke-width="1" fill="blue" tooltip="enable"><title>(0.624392,245)</title></rect><rect x="102" y="156.873" width="6" height="43.1267" stroke="black" stroke-width="1" fill="blue" tooltip="enable"><title>(0.663417,240)</title></rect><rect x="108" y="152.381" width="6" height="47.619" stroke="black" stroke-width="1" fill="blue" tooltip="enable"><title>(0.702442,265)</title></rect><rect x="114" y="159.389" width="6" height="40.611" stroke="black" stroke-width="1" fill="blue" tooltip="enable"><title>(0.741466,226)</title></rect><rect x="120" y="159.748" width="6" height="40.2516" stroke="black" stroke-width="1" fill="blue" tooltip="enable"><title>(0.780491,224)</title></rect><rect x="126" y="164.061" width="6" height="35.9389" stroke="black" stroke-width="1" fill="blue" tooltip="enable"><title>(0.819515,200)</title></rect><rect x="132" y="168.733" width="6" height="31.2668" stroke="black" stroke-width="1" fill="blue" tooltip="enable"><title>(0.85854,174)</title></rect><rect x="138" y="166.217" width="6" height="33.7826" stroke="black" stroke-width="1" fill="blue" tooltip="enable"><title>(0.897564,188)</title></rect><rect x="144" y="167.835" width="6" height="32.1653" stroke="black" stroke-width="1" fill="blue" tooltip="enable"><title>(0.936589,179)</title></rect><rect x="150" y="173.405" width="6" height="26.5948" stroke="black" stroke-width="1" fill="blue" tooltip="enable"><title>(0.975613,148)</title></rect><rect x="156" y="173.046" width="6" height="26.9542" stroke="black" stroke-width="1" fill="blue" tooltip="enable"><title>(1.01464,150)</title></rect><rect x="162" y="173.765" width="6" height="26.2354" stroke="black" stroke-width="1" fill="blue" tooltip="enable"><title>(1.05366,146)</title></rect><rect x="168" y="180.952" width="6" height="19.0476" stroke="black" stroke-width="1" fill="blue" tooltip="enable"><title>(1.09269,106)</title></rect><rect x="174" y="177.898" width="6" height="22.1024" stroke="black" stroke-width="1" fill="blue" tooltip="enable"><title>(1.13171,123)</title></rect><rect x="180" y="180.952" width="6" height="19.0476" stroke="black" stroke-width="1" fill="blue" tooltip="enable"><title>(1.17074,106)</title></rect><rect x="186" y="184.906" width="6" height="15.0943" stroke="black" stroke-width="1" fill="blue" tooltip="enable"><title>(1.20976,84)</title></rect><rect x="192" y="180.593" width="6" height="19.407" stroke="black" stroke-width="1" fill="blue" tooltip="enable"><title>(1.24878,108)</title></rect><rect x="198" y="184.546" width="6" height="15.4537" stroke="black" stroke-width="1" fill="blue" tooltip="enable"><title>(1.28781,86)</title></rect><rect x="204" y="185.984" width="6" height="14.0162" stroke="black" stroke-width="1" fill="blue" tooltip="enable"><title>(1.32683,78)</title></rect><rect x="210" y="183.288" width="6" height="16.7116" stroke="black" stroke-width="1" fill="blue" tooltip="enable"><title>(1.36586,93)</title></rect><rect x="216" y="186.523" width="6" height="13.4771" stroke="black" stroke-width="1" fill="blue" tooltip="enable"><title>(1.40488,75)</title></rect><rect x="222" y="186.343" width="6" height="13.6568" stroke="black" stroke-width="1" fill="blue" tooltip="enable"><title>(1.44391,76)</title></rect><rect x="228" y="185.624" width="6" height="14.3756" stroke="black" stroke-width="1" fill="blue" tooltip="enable"><title>(1.48293,80)</title></rect><rect x="234" y="185.984" width="6" height="14.0162" stroke="black" stroke-width="1" fill="blue" tooltip="enable"><title>(1.52196,78)</title></rect><rect x="240" y="186.882" width="6" height="13.1177" stroke="black" stroke-width="1" fill="blue" tooltip="enable"><title>(1.56098,73)</title></rect><rect x="246" y="190.296" width="6" height="9.7035" stroke="black" stroke-width="1" fill="blue" tooltip="enable"><title>(1.60001,54)</title></rect><rect x="252" y="191.554" width="6" height="8.44564" stroke="black" stroke-width="1" fill="blue" tooltip="enable"><title>(1.63903,47)</title></rect><rect x="258" y="190.296" width="6" height="9.7035" stroke="black" stroke-width="1" fill="blue" tooltip="enable"><title>(1.67805,54)</title></rect><rect x="264" y="189.578" width="6" height="10.4223" stroke="black" stroke-width="1" fill="blue" tooltip="enable"><title>(1.71708,58)</title></rect><rect x="270" y="193.351" width="6" height="6.6487" stroke="black" stroke-width="1" fill="blue" tooltip="enable"><title>(1.7561,37)</title></rect><rect x="276" y="192.992" width="6" height="7.00809" stroke="black" stroke-width="1" fill="blue" tooltip="enable"><title>(1.79513,39)</title></rect><rect x="282" y="189.757" width="6" height="10.2426" stroke="black" stroke-width="1" fill="blue" tooltip="enable"><title>(1.83415,57)</title></rect><rect x="288" y="192.273" width="6" height="7.72686" stroke="black" stroke-width="1" fill="blue" tooltip="enable"><title>(1.87318,43)</title></rect><rect x="294" y="194.969" width="6" height="5.03145" stroke="black" stroke-width="1" fill="blue" tooltip="enable"><title>(1.9122,28)</title></rect><rect x="300" y="194.609" width="6" height="5.39084" stroke="black" stroke-width="1" fill="blue" tooltip="enable"><title>(1.95123,30)</title></rect><rect x="306" y="194.609" width="6" height="5.39084" stroke="black" stroke-width="1" fill="blue" tooltip="enable"><title>(1.99025,30)</title></rect><rect x="312" y="194.789" width="6" height="5.21114" stroke="black" stroke-width="1" fill="blue" tooltip="enable"><title>(2.02928,29)</title></rect><rect x="318" y="194.789" width="6" height="5.21114" stroke="black" stroke-width="1" fill="blue" tooltip="enable"><title>(2.0683,29)</title></rect><rect x="324" y="194.429" width="6" height="5.57053" stroke="black" stroke-width="1" fill="blue" tooltip="enable"><title>(2.10732,31)</title></rect><rect x="330" y="196.406" width="6" height="3.59389" stroke="black" stroke-width="1" fill="blue" tooltip="enable"><title>(2.14635,20)</title></rect><rect x="336" y="196.586" width="6" height="3.4142" stroke="black" stroke-width="1" fill="blue" tooltip="enable"><title>(2.18537,19)</title></rect><rect x="342" y="194.25" width="6" height="5.75022" stroke="black" stroke-width="1" fill="blue" tooltip="enable"><title>(2.2244,32)</title></rect><rect x="348" y="196.766" width="6" height="3.2345" stroke="black" stroke-width="1" fill="blue" tooltip="enable"><title>(2.26342,18)</title></rect><rect x="354" y="195.148" width="6" height="4.85175" stroke="black" stroke-width="1" fill="blue" tooltip="enable"><title>(2.30245,27)</title></rect><rect x="360" y="196.586" width="6" height="3.4142" stroke="black" stroke-width="1" fill="blue" tooltip="enable"><title>(2.34147,19)</title></rect><rect x="366" y="196.226" width="6" height="3.77358" stroke="black" stroke-width="1" fill="blue" tooltip="enable"><title>(2.3805,21)</title></rect><rect x="372" y="196.406" width="6" height="3.59389" stroke="black" stroke-width="1" fill="blue" tooltip="enable"><title>(2.41952,20)</title></rect><rect x="378" y="197.664" width="6" height="2.33603" stroke="black" stroke-width="1" fill="blue" tooltip="enable"><title>(2.45855,13)</title></rect><rect x="384" y="197.305" width="6" height="2.69542" stroke="black" stroke-width="1" fill="blue" tooltip="enable"><title>(2.49757,15)</title></rect><rect x="390" y="198.203" width="6" height="1.79695" stroke="black" stroke-width="1" fill="blue" tooltip="enable"><title>(2.53659,10)</title></rect><rect x="396" y="195.867" width="6" height="4.13297" stroke="black" stroke-width="1" fill="blue" tooltip="enable"><title>(2.57562,23)</title></rect><rect x="402" y="196.945" width="6" height="3.05481" stroke="black" stroke-width="1" fill="blue" tooltip="enable"><title>(2.61464,17)</title></rect><rect x="408" y="198.203" width="6" height="1.79695" stroke="black" stroke-width="1" fill="blue" tooltip="enable"><title>(2.65367,10)</title></rect><rect x="414" y="197.305" width="6" height="2.69542" stroke="black" stroke-width="1" fill="blue" tooltip="enable"><title>(2.69269,15)</title></rect><rect x="420" y="197.305" width="6" height="2.69542" stroke="black" stroke-width="1" fill="blue" tooltip="enable"><title>(2.73172,15)</title></rect><rect x="426" y="198.922" width="6" height="1.07817" stroke="black" stroke-width="1" fill="blue" tooltip="enable"><title>(2.77074,6)</title></rect><rect x="432" y="197.844" width="6" height="2.15633" stroke="black" stroke-width="1" fill="blue" tooltip="enable"><title>(2.80977,12)</title></rect><rect x="438" y="198.383" width="6" height="1.61725" stroke="black" stroke-width="1" fill="blue" tooltip="enable"><title>(2.84879,9)</title></rect><rect x="444" y="198.562" width="6" height="1.43756" stroke="black" stroke-width="1" fill="blue" tooltip="enable"><title>(2.88781,8)</title></rect><rect x="450" y="197.664" width="6" height="2.33603" stroke="black" stroke-width="1" fill="blue" tooltip="enable"><title>(2.92684,13)</title></rect><rect x="456" y="198.562" width="6" height="1.43756" stroke="black" stroke-width="1" fill="blue" tooltip="enable"><title>(2.96586,8)</title></rect><rect x="462" y="198.203" width="6" height="1.79695" stroke="black" stroke-width="1" fill="blue" tooltip="enable"><title>(3.00489,10)</title></rect><rect x="468" y="198.562" width="6" height="1.43756" stroke="black" stroke-width="1" fill="blue" tooltip="enable"><title>(3.04391,8)</title></rect><rect x="474" y="199.102" width="6" height="0.898473" stroke="black" stroke-width="1" fill="blue" tooltip="enable"><title>(3.08294,5)</title></rect><rect x="480" y="198.742" width="6" height="1.25786" stroke="black" stroke-width="1" fill="blue" tooltip="enable"><title>(3.12196,7)</title></rect><rect x="486" y="198.383" width="6" height="1.61725" stroke="black" stroke-width="1" fill="blue" tooltip="enable"><title>(3.16099,9)</title></rect><rect x="492" y="199.102" width="6" height="0.898473" stroke="black" stroke-width="1" fill="blue" tooltip="enable"><title>(3.20001,5)</title></rect><rect x="498" y="199.281" width="6" height="0.718778" stroke="black" stroke-width="1" fill="blue" tooltip="enable"><title>(3.23904,4)</title></rect><rect x="504" y="199.461" width="6" height="0.539084" stroke="black" stroke-width="1" fill="blue" tooltip="enable"><title>(3.27806,3)</title></rect><rect x="510" y="199.281" width="6" height="0.718778" stroke="black" stroke-width="1" fill="blue" tooltip="enable"><title>(3.31708,4)</title></rect><rect x="516" y="198.562" width="6" height="1.43756" stroke="black" stroke-width="1" fill="blue" tooltip="enable"><title>(3.35611,8)</title></rect><rect x="522" y="199.82" width="6" height="0.179695" stroke="black" stroke-width="1" fill="blue" tooltip="enable"><title>(3.39513,1)</title></rect><rect x="528" y="199.82" width="6" height="0.179695" stroke="black" stroke-width="1" fill="blue" tooltip="enable"><title>(3.43416,1)</title></rect><rect x="534" y="199.461" width="6" height="0.539084" stroke="black" stroke-width="1" fill="blue" tooltip="enable"><title>(3.47318,3)</title></rect><rect x="540" y="198.922" width="6" height="1.07817" stroke="black" stroke-width="1" fill="blue" tooltip="enable"><title>(3.51221,6)</title></rect><rect x="546" y="199.82" width="6" height="0.179695" stroke="black" stroke-width="1" fill="blue" tooltip="enable"><title>(3.55123,1)</title></rect><rect x="552" y="200" width="6" height="0" stroke="black" stroke-width="1" fill="blue" tooltip="enable"><title>(3.59026,0)</title></rect><rect x="558" y="199.82" width="6" height="0.179695" stroke="black" stroke-width="1" fill="blue" tooltip="enable"><title>(3.62928,1)</title></rect><rect x="564" y="199.641" width="6" height="0.359389" stroke="black" stroke-width="1" fill="blue" tooltip="enable"><title>(3.66831,2)</title></rect><rect x="570" y="199.82" width="6" height="0.179695" stroke="black" stroke-width="1" fill="blue" tooltip="enable"><title>(3.70733,1)</title></rect><rect x="576" y="200" width="6" height="0" stroke="black" stroke-width="1" fill="blue" tooltip="enable"><title>(3.74635,0)</title></rect><rect x="582" y="200" width="6" height="0" stroke="black" stroke-width="1" fill="blue" tooltip="enable"><title>(3.78538,0)</title></rect><rect x="588" y="200" width="6" height="0" stroke="black" stroke-width="1" fill="blue" tooltip="enable"><title>(3.8244,0)</title></rect><rect x="594" y="199.641" width="6" height="0.359389" stroke="black" stroke-width="1" fill="blue" tooltip="enable"><title>(3.86343,2)</title></rect><text x="30" y="240" font-size="20" fill="black">0</text>
<text x="600" y="240" font-size="20" fill="black">3.90245</text>
<polyline points="0,220,600,220" stroke="black" stroke-width="1" fill="none"/>
<text x="720" y="20" font-size="20" fill="black">1113</text>
<text x="720" y="200" font-size="20" fill="black">0</text>
<polyline points="660,0,660,200" stroke="black" stroke-width="1" fill="none"/>
</svg>