<?xml version="1.0" standalone="yes"?>
<!-- SVG graphic -->
<svg xmlns='http://www.w3.org/2000/svg' xmlns:xlink='http://www.w3.org/1999/xlink'
width="70px" height="70px" preserveAspectRatio="xMinYMin meet" viewBox="0 0 70 70" version="1.1">
<rect x="5" y="0" width="2.5" height="2.5" fill="rgb(140,0,114)" tooltip="enable"><title>(1,0 357)</title></rect><rect x="10" y="0" width="2.5" height="2.5" fill="rgb(22,0,232)" tooltip="enable"><title>(2,0 56)</title></rect><rect x="15" y="0" width="2.5" height="2.5" fill="rgb(42,0,212)" tooltip="enable"><title>(3,0 108)</title></rect><rect x="20" y="0" width="2.5" height="2.5" fill="rgb(32,0,222)" tooltip="enable"><title>(4,0 82)</title></rect><rect x="25" y="0" width="2.5" height="2.5" fill="rgb(34,0,220)" tooltip="enable"><title>(5,0 87)</title></rect><rect x="30" y="0" width="2.5" height="2.5" fill="rgb(16,0,238)" tooltip="enable"><title>(6,0 42)</title></rect><rect x="35" y="0" width="2.5" height="2.5" fill="rgb(69,0,185)" tooltip="enable"><title>(7,0 177)</title></rect><rect x="40" y="0" width="2.5" height="2.5" fill="rgb(100,0,154)" tooltip="enable"><title>(8,0 256)</title></rect><rect x="45" y="0" width="2.5" height="2.5" fill="rgb(70,0,184)" tooltip="enable"><title>(9,0 179)</title></rect><rect x="50" y="0" width="2.5" height="2.5" fill="rgb(11,0,243)" tooltip="enable"><title>(10,0 30)</title></rect><rect x="10" y="5" width="2.5" height="2.5" fill="rgb(46,0,208)" tooltip="enable"><title>(2,1 118)</title></rect><rect x="15" y="5" width="2.5" height="2.5" fill="rgb(81,0,173)" tooltip="enable"><title>(3,1 208)</title></rect><rect x="20" y="5" width="2.5" height="2.5" fill="rgb(69,0,185)" tooltip="enable"><title>(4,1 176)</title></rect><rect x="25" y="5" width="2.5" height="2.5" fill="rgb(64,0,190)" tooltip="enable"><title>(5,1 163)</title></rect><rect x="30" y="5" width="2.5" height="2.5" fill="rgb(19,0,235)" tooltip="enable"><title>(6,1 50)</title></rect><rect x="35" y="5" width="2.5" height="2.5" fill="rgb(22,0,232)" tooltip="enable"><title>(7,1 56)</title></rect><rect x="40" y="5" width="2.5" height="2.5" fill="rgb(51,0,203)" tooltip="enable"><title>(8,1 131)</title></rect><rect x="45" y="5" width="2.5" height="2.5" fill="rgb(229,0,25)" tooltip="enable"><title>(9,1 582)</title></rect><rect x="50" y="5" width="2.5" height="2.5" fill="rgb(19,0,235)" tooltip="enable"><title>(10,1 50)</title></rect><rect x="15" y="10" width="2.5" height="2.5" fill="rgb(36,0,218)" tooltip="enable"><title>(3,2 94)</title></rect><rect x="20" y="10" width="2.5" height="2.5" fill="rgb(42,0,212)" tooltip="enable"><title>(4,2 107)</title></rect><rect x="25" y="10" width="2.5" height="2.5" fill="rgb(22,0,232)" tooltip="enable"><title>(5,2 56)</title></rect><rect x="30" y="10" width="2.5" height="2.5" fill="rgb(12,0,242)" tooltip="enable"><title>(6,2 31)</title></rect><rect x="45" y="10" width="2.5" height="2.5" fill="rgb(38,0,216)" tooltip="enable"><title>(9,2 97)</title></rect><rect x="50" y="10" width="2.5" height="2.5" fill="rgb(38,0,216)" tooltip="enable"><title>(10,2 99)</title></rect><rect x="20" y="15" width="2.5" height="2.5" fill="rgb(142,0,112)" tooltip="enable"><title>(4,3 363)</title></rect><rect x="25" y="15" width="2.5" height="2.5" fill="rgb(194,0,60)" tooltip="enable"><title>(5,3 493)</title></rect><rect x="30" y="15" width="2.5" height="2.5" fill="rgb(56,0,198)" tooltip="enable"><title>(6,3 143)</title></rect><rect x="45" y="15" width="2.5" height="2.5" fill="rgb(64,0,190)" tooltip="enable"><title>(9,3 164)</title></rect><rect x="50" y="15" width="2.5" height="2.5" fill="rgb(69,0,185)" tooltip="enable"><title>(10,3 176)</title></rect><rect x="25" y="20" width="2.5" height="2.5" fill="rgb(174,0,80)" tooltip="enable"><title>(5,4 443)</title></rect><rect x="30" y="20" width="2.5" height="2.5" fill="rgb(81,0,173)" tooltip="enable"><title>(6,4 207)</title></rect><rect x="45" y="20" width="2.5" height="2.5" fill="rgb(53,0,201)" tooltip="enable"><title>(9,4 136)</title></rect><rect x="50" y="20" width="2.5" height="2.5" fill="rgb(119,0,135)" tooltip="enable"><title>(10,4 303)</title></rect><rect x="30" y="25" width="2.5" height="2.5" fill="rgb(125,0,129)" tooltip="enable"><title>(6,5 320)</title></rect><rect x="45" y="25" width="2.5" height="2.5" fill="rgb(44,0,210)" tooltip="enable"><title>(9,5 114)</title></rect><rect x="50" y="25" width="2.5" height="2.5" fill="rgb(107,0,147)" tooltip="enable"><title>(10,5 272)</title></rect><rect x="50" y="30" width="2.5" height="2.5" fill="rgb(46,0,208)" tooltip="enable"><title>(10,6 117)</title></rect><rect x="40" y="35" width="2.5" height="2.5" fill="rgb(255,0,0)" tooltip="enable"><title>(8,7 648)</title></rect><rect x="45" y="35" width="2.5" height="2.5" fill="rgb(19,0,235)" tooltip="enable"><title>(9,7 50)</title></rect><rect x="45" y="40" width="2.5" height="2.5" fill="rgb(39,0,215)" tooltip="enable"><title>(9,8 101)</title></rect><rect x="50" y="45" width="2.5" height="2.5" fill="rgb(15,0,239)" tooltip="enable"><title>(10,9 39)</title></rect><text x="60" y="5" font-size="5" fill="black">0</text>
<text x="60" y="50" font-size="5" fill="black">11</text>
<polyline points="60,10,60,45" stroke="black" stroke-width="1" fill="none"/>
<text x="5" y="60" font-size="5" fill="black">0</text>
<text x="50" y="60" font-size="5" fill="black">11</text>
<polyline points="10,60,45,60" stroke="black" stroke-width="1" fill="none"/>
</svg>