<?xml version="1.0" standalone="yes"?>
<!-- SVG graphic -->
<svg xmlns='http://www.w3.org/2000/svg' xmlns:xlink='http://www.w3.org/1999/xlink'
width="70px" height="70px" preserveAspectRatio="xMinYMin meet" viewBox="0 0 70 70" version="1.1">
<rect x="5" y="0" width="2.5" height="2.5" fill="rgb(174,0,80)" tooltip="enable"><title>(1,0 610)</title></rect><rect x="10" y="0" width="2.5" height="2.5" fill="rgb(41,0,213)" tooltip="enable"><title>(2,0 144)</title></rect><rect x="15" y="0" width="2.5" height="2.5" fill="rgb(69,0,185)" tooltip="enable"><title>(3,0 242)</title></rect><rect x="20" y="0" width="2.5" height="2.5" fill="rgb(69,0,185)" tooltip="enable"><title>(4,0 242)</title></rect><rect x="25" y="0" width="2.5" height="2.5" fill="rgb(72,0,182)" tooltip="enable"><title>(5,0 255)</title></rect><rect x="30" y="0" width="2.5" height="2.5" fill="rgb(51,0,203)" tooltip="enable"><title>(6,0 182)</title></rect><rect x="35" y="0" width="2.5" height="2.5" fill="rgb(116,0,138)" tooltip="enable"><title>(7,0 407)</title></rect><rect x="40" y="0" width="2.5" height="2.5" fill="rgb(135,0,119)" tooltip="enable"><title>(8,0 476)</title></rect><rect x="45" y="0" width="2.5" height="2.5" fill="rgb(112,0,142)" tooltip="enable"><title>(9,0 395)</title></rect><rect x="50" y="0" width="2.5" height="2.5" fill="rgb(31,0,223)" tooltip="enable"><title>(10,0 111)</title></rect><rect x="10" y="5" width="2.5" height="2.5" fill="rgb(58,0,196)" tooltip="enable"><title>(2,1 205)</title></rect><rect x="15" y="5" width="2.5" height="2.5" fill="rgb(105,0,149)" tooltip="enable"><title>(3,1 368)</title></rect><rect x="20" y="5" width="2.5" height="2.5" fill="rgb(97,0,157)" tooltip="enable"><title>(4,1 340)</title></rect><rect x="25" y="5" width="2.5" height="2.5" fill="rgb(103,0,151)" tooltip="enable"><title>(5,1 361)</title></rect><rect x="30" y="5" width="2.5" height="2.5" fill="rgb(46,0,208)" tooltip="enable"><title>(6,1 162)</title></rect><rect x="35" y="5" width="2.5" height="2.5" fill="rgb(77,0,177)" tooltip="enable"><title>(7,1 270)</title></rect><rect x="40" y="5" width="2.5" height="2.5" fill="rgb(99,0,155)" tooltip="enable"><title>(8,1 349)</title></rect><rect x="45" y="5" width="2.5" height="2.5" fill="rgb(220,0,34)" tooltip="enable"><title>(9,1 772)</title></rect><rect x="50" y="5" width="2.5" height="2.5" fill="rgb(42,0,212)" tooltip="enable"><title>(10,1 149)</title></rect><rect x="15" y="10" width="2.5" height="2.5" fill="rgb(71,0,183)" tooltip="enable"><title>(3,2 250)</title></rect><rect x="20" y="10" width="2.5" height="2.5" fill="rgb(73,0,181)" tooltip="enable"><title>(4,2 257)</title></rect><rect x="25" y="10" width="2.5" height="2.5" fill="rgb(61,0,193)" tooltip="enable"><title>(5,2 216)</title></rect><rect x="30" y="10" width="2.5" height="2.5" fill="rgb(42,0,212)" tooltip="enable"><title>(6,2 148)</title></rect><rect x="35" y="10" width="2.5" height="2.5" fill="rgb(53,0,201)" tooltip="enable"><title>(7,2 188)</title></rect><rect x="40" y="10" width="2.5" height="2.5" fill="rgb(55,0,199)" tooltip="enable"><title>(8,2 194)</title></rect><rect x="45" y="10" width="2.5" height="2.5" fill="rgb(76,0,178)" tooltip="enable"><title>(9,2 269)</title></rect><rect x="50" y="10" width="2.5" height="2.5" fill="rgb(59,0,195)" tooltip="enable"><title>(10,2 209)</title></rect><rect x="20" y="15" width="2.5" height="2.5" fill="rgb(138,0,116)" tooltip="enable"><title>(4,3 486)</title></rect><rect x="25" y="15" width="2.5" height="2.5" fill="rgb(176,0,78)" tooltip="enable"><title>(5,3 619)</title></rect><rect x="30" y="15" width="2.5" height="2.5" fill="rgb(79,0,175)" tooltip="enable"><title>(6,3 280)</title></rect><rect x="35" y="15" width="2.5" height="2.5" fill="rgb(62,0,192)" tooltip="enable"><title>(7,3 220)</title></rect><rect x="40" y="15" width="2.5" height="2.5" fill="rgb(61,0,193)" tooltip="enable"><title>(8,3 217)</title></rect><rect x="45" y="15" width="2.5" height="2.5" fill="rgb(105,0,149)" tooltip="enable"><title>(9,3 369)</title></rect><rect x="50" y="15" width="2.5" height="2.5" fill="rgb(74,0,180)" tooltip="enable"><title>(10,3 260)</title></rect><rect x="25" y="20" width="2.5" height="2.5" fill="rgb(171,0,83)" tooltip="enable"><title>(5,4 601)</title></rect><rect x="30" y="20" width="2.5" height="2.5" fill="rgb(105,0,149)" tooltip="enable"><title>(6,4 368)</title></rect><rect x="35" y="20" width="2.5" height="2.5" fill="rgb(69,0,185)" tooltip="enable"><title>(7,4 243)</title></rect><rect x="40" y="20" width="2.5" height="2.5" fill="rgb(71,0,183)" tooltip="enable"><title>(8,4 251)</title></rect><rect x="45" y="20" width="2.5" height="2.5" fill="rgb(106,0,148)" tooltip="enable"><title>(9,4 374)</title></rect><rect x="50" y="20" width="2.5" height="2.5" fill="rgb(113,0,141)" tooltip="enable"><title>(10,4 399)</title></rect><rect x="30" y="25" width="2.5" height="2.5" fill="rgb(135,0,119)" tooltip="enable"><title>(6,5 475)</title></rect><rect x="35" y="25" width="2.5" height="2.5" fill="rgb(67,0,187)" tooltip="enable"><title>(7,5 237)</title></rect><rect x="40" y="25" width="2.5" height="2.5" fill="rgb(69,0,185)" tooltip="enable"><title>(8,5 245)</title></rect><rect x="45" y="25" width="2.5" height="2.5" fill="rgb(101,0,153)" tooltip="enable"><title>(9,5 354)</title></rect><rect x="50" y="25" width="2.5" height="2.5" fill="rgb(105,0,149)" tooltip="enable"><title>(10,5 368)</title></rect><rect x="35" y="30" width="2.5" height="2.5" fill="rgb(67,0,187)" tooltip="enable"><title>(7,6 237)</title></rect><rect x="40" y="30" width="2.5" height="2.5" fill="rgb(71,0,183)" tooltip="enable"><title>(8,6 250)</title></rect><rect x="45" y="30" width="2.5" height="2.5" fill="rgb(62,0,192)" tooltip="enable"><title>(9,6 220)</title></rect><rect x="50" y="30" width="2.5" height="2.5" fill="rgb(69,0,185)" tooltip="enable"><title>(10,6 244)</title></rect><rect x="40" y="35" width="2.5" height="2.5" fill="rgb(255,0,0)" tooltip="enable"><title>(8,7 893)</title></rect><rect x="45" y="35" width="2.5" height="2.5" fill="rgb(75,0,179)" tooltip="enable"><title>(9,7 265)</title></rect><rect x="50" y="35" width="2.5" height="2.5" fill="rgb(26,0,228)" tooltip="enable"><title>(10,7 93)</title></rect><rect x="45" y="40" width="2.5" height="2.5" fill="rgb(90,0,164)" tooltip="enable"><title>(9,8 318)</title></rect><rect x="50" y="40" width="2.5" height="2.5" fill="rgb(25,0,229)" tooltip="enable"><title>(10,8 90)</title></rect><rect x="50" y="45" width="2.5" height="2.5" fill="rgb(43,0,211)" tooltip="enable"><title>(10,9 151)</title></rect><text x="60" y="5" font-size="5" fill="black">0</text>
<text x="60" y="50" font-size="5" fill="black">11</text>
<polyline points="60,10,60,45" stroke="black" stroke-width="1" fill="none"/>
<text x="5" y="60" font-size="5" fill="black">0</text>
<text x="50" y="60" font-size="5" fill="black">11</text>
<polyline points="10,60,45,60" stroke="black" stroke-width="1" fill="none"/>
</svg>